<?xml version="1.0" encoding="iso-8859-1"?>
<!-- Uploaded to: SVG Repo, www.svgrepo.com, Generator: SVG Repo Mixer Tools -->
<svg fill="#000000" height="800px" width="800px" version="1.1" id="Layer_1" xmlns="http://www.w3.org/2000/svg" xmlns:xlink="http://www.w3.org/1999/xlink" 
	 viewBox="0 0 512 512" xml:space="preserve">
<g>
	<g>
		<path d="M475.198,262.205h-18.129v-37.672c0-25.243-20.537-45.781-45.781-45.781h-49.293V92.129H0v291.218h47.103
			c6.672,21.147,26.468,36.525,49.792,36.525c23.324,0,43.12-15.378,49.792-36.525h183.958h31.349h10.064
			c6.672,21.147,26.468,36.525,49.792,36.525s43.12-15.378,49.792-36.525H512v-84.339C512,278.714,495.49,262.205,475.198,262.205z
			 M96.895,388.522c-11.497,0-20.85-9.354-20.85-20.85c0-11.497,9.354-20.85,20.85-20.85c11.497,0,20.851,9.354,20.851,20.85
			C117.746,379.169,108.392,388.522,96.895,388.522z M330.645,351.997H146.691c-0.227-0.718-0.47-1.427-0.727-2.131
			c-0.069-0.191-0.145-0.378-0.217-0.568c-0.206-0.545-0.418-1.089-0.642-1.625c-0.102-0.246-0.209-0.489-0.315-0.732
			c-0.212-0.488-0.432-0.973-0.658-1.453c-0.112-0.237-0.224-0.474-0.339-0.711c-0.258-0.528-0.528-1.048-0.804-1.565
			c-0.09-0.169-0.176-0.34-0.266-0.508c-0.374-0.683-0.762-1.358-1.164-2.023c-0.068-0.113-0.142-0.222-0.211-0.334
			c-0.338-0.548-0.684-1.089-1.042-1.623c-0.136-0.203-0.275-0.401-0.413-0.602c-0.307-0.446-0.621-0.887-0.942-1.324
			c-0.151-0.206-0.303-0.411-0.458-0.615c-0.342-0.45-0.692-0.894-1.048-1.333c-0.133-0.164-0.262-0.33-0.397-0.492
			c-0.497-0.599-1.005-1.188-1.529-1.764c-0.007-0.008-0.015-0.016-0.022-0.023c-0.511-0.561-1.036-1.109-1.571-1.647
			c-0.158-0.159-0.32-0.313-0.48-0.47c-0.396-0.389-0.796-0.772-1.204-1.148c-0.186-0.171-0.374-0.342-0.562-0.511
			c-0.411-0.368-0.828-0.727-1.249-1.083c-0.176-0.147-0.349-0.297-0.527-0.442c-0.551-0.451-1.11-0.891-1.679-1.321
			c-0.047-0.036-0.092-0.073-0.139-0.108c-0.624-0.466-1.259-0.917-1.904-1.355c-0.167-0.114-0.34-0.223-0.508-0.334
			c-0.479-0.318-0.96-0.628-1.449-0.93c-0.218-0.135-0.438-0.266-0.658-0.397c-0.464-0.277-0.932-0.547-1.404-0.809
			c-0.217-0.121-0.435-0.243-0.654-0.361c-0.549-0.295-1.105-0.579-1.666-0.854c-0.139-0.068-0.276-0.141-0.416-0.209
			c-0.704-0.339-1.418-0.661-2.139-0.969c-0.162-0.069-0.326-0.131-0.488-0.199c-0.56-0.232-1.123-0.456-1.693-0.669
			c-0.245-0.092-0.491-0.179-0.738-0.266c-0.505-0.18-1.014-0.352-1.526-0.517c-0.257-0.083-0.514-0.165-0.772-0.243
			c-0.553-0.168-1.109-0.325-1.669-0.475c-0.209-0.055-0.415-0.117-0.625-0.17c-0.767-0.195-1.541-0.376-2.321-0.537
			c-0.125-0.026-0.254-0.046-0.379-0.071c-0.656-0.131-1.316-0.249-1.98-0.354c-0.261-0.042-0.525-0.076-0.787-0.114
			c-0.542-0.077-1.088-0.147-1.635-0.209c-0.285-0.031-0.572-0.062-0.858-0.089c-0.56-0.052-1.124-0.094-1.69-0.129
			c-0.257-0.016-0.512-0.036-0.77-0.047c-0.817-0.038-1.636-0.063-2.463-0.063c-0.826,0-1.646,0.024-2.463,0.063
			c-0.258,0.013-0.513,0.031-0.77,0.048c-0.565,0.034-1.129,0.076-1.689,0.128c-0.287,0.027-0.574,0.057-0.859,0.089
			c-0.548,0.061-1.091,0.131-1.633,0.208c-0.263,0.038-0.527,0.073-0.789,0.114c-0.663,0.106-1.321,0.224-1.975,0.353
			c-0.127,0.025-0.257,0.045-0.385,0.072c-0.78,0.161-1.553,0.342-2.32,0.537c-0.211,0.053-0.419,0.115-0.629,0.171
			c-0.558,0.149-1.113,0.306-1.664,0.473c-0.26,0.079-0.518,0.162-0.776,0.246c-0.51,0.164-1.017,0.336-1.52,0.515
			c-0.248,0.088-0.496,0.176-0.743,0.268c-0.566,0.212-1.128,0.435-1.686,0.666c-0.165,0.068-0.332,0.132-0.496,0.202
			c-0.72,0.307-1.433,0.629-2.137,0.968c-0.142,0.068-0.281,0.142-0.423,0.212c-0.558,0.274-1.111,0.557-1.657,0.851
			c-0.222,0.118-0.439,0.241-0.658,0.364c-0.471,0.261-0.937,0.53-1.399,0.806c-0.222,0.133-0.443,0.264-0.663,0.4
			c-0.486,0.3-0.967,0.609-1.442,0.925c-0.171,0.114-0.345,0.224-0.515,0.339c-0.644,0.438-1.279,0.888-1.902,1.353
			c-0.049,0.037-0.096,0.076-0.145,0.113c-0.567,0.427-1.124,0.866-1.673,1.316c-0.179,0.146-0.353,0.297-0.53,0.445
			c-0.421,0.353-0.836,0.713-1.246,1.079c-0.189,0.169-0.377,0.341-0.565,0.513c-0.408,0.375-0.807,0.759-1.203,1.146
			c-0.16,0.157-0.322,0.311-0.48,0.471c-0.536,0.54-1.064,1.09-1.576,1.653c-0.005,0.005-0.01,0.01-0.015,0.016
			c-0.523,0.576-1.031,1.166-1.53,1.765c-0.135,0.162-0.265,0.329-0.398,0.493c-0.355,0.439-0.705,0.882-1.047,1.332
			c-0.155,0.204-0.306,0.409-0.458,0.614c-0.321,0.436-0.634,0.878-0.942,1.324c-0.138,0.201-0.278,0.399-0.413,0.602
			c-0.358,0.535-0.705,1.078-1.045,1.628c-0.068,0.11-0.14,0.217-0.207,0.328c-0.403,0.666-0.791,1.341-1.166,2.025
			c-0.091,0.165-0.174,0.334-0.263,0.502c-0.277,0.519-0.547,1.042-0.806,1.572c-0.115,0.235-0.226,0.471-0.338,0.707
			c-0.227,0.481-0.446,0.967-0.659,1.456c-0.106,0.244-0.211,0.486-0.313,0.732c-0.224,0.537-0.436,1.079-0.643,1.626
			c-0.071,0.19-0.147,0.377-0.217,0.567c-0.256,0.704-0.501,1.414-0.727,2.131h-15.75v-58.476h299.295V351.997z M330.645,178.752
			v83.42H31.349V123.478h299.295V178.752z M361.994,210.101h49.292c7.958,0,14.432,6.474,14.432,14.432v37.64h-63.725V210.101z
			 M421.851,388.522c-11.498,0-20.851-9.354-20.851-20.85c0-11.497,9.354-20.85,20.851-20.85c10.778,0,19.673,8.221,20.743,18.722
			c0.071,0.7,0.108,1.411,0.108,2.129C442.701,379.169,433.348,388.522,421.851,388.522z M471.647,351.997
			c-0.227-0.718-0.47-1.427-0.727-2.131c-0.069-0.19-0.145-0.378-0.217-0.567c-0.206-0.545-0.419-1.089-0.643-1.626
			c-0.102-0.246-0.208-0.488-0.313-0.731c-0.212-0.489-0.433-0.975-0.659-1.456c-0.112-0.237-0.223-0.473-0.338-0.707
			c-0.259-0.53-0.53-1.052-0.806-1.572c-0.089-0.166-0.173-0.336-0.264-0.502c-0.374-0.684-0.762-1.359-1.166-2.025
			c-0.067-0.111-0.139-0.217-0.207-0.328c-0.339-0.55-0.687-1.092-1.045-1.628c-0.136-0.203-0.275-0.401-0.413-0.602
			c-0.307-0.446-0.621-0.887-0.943-1.324c-0.152-0.206-0.303-0.411-0.458-0.614c-0.342-0.45-0.692-0.893-1.047-1.332
			c-0.133-0.164-0.263-0.331-0.398-0.493c-0.497-0.599-1.005-1.189-1.53-1.765c-0.005-0.005-0.01-0.01-0.015-0.016
			c-0.513-0.563-1.04-1.113-1.576-1.653c-0.158-0.159-0.32-0.313-0.48-0.471c-0.395-0.388-0.795-0.771-1.203-1.146
			c-0.187-0.172-0.375-0.344-0.565-0.513c-0.41-0.367-0.825-0.726-1.246-1.079c-0.177-0.148-0.351-0.299-0.53-0.445
			c-0.549-0.449-1.107-0.888-1.673-1.316c-0.049-0.037-0.096-0.076-0.145-0.113c-0.623-0.466-1.258-0.915-1.902-1.353
			c-0.17-0.115-0.344-0.226-0.515-0.339c-0.475-0.316-0.955-0.625-1.442-0.925c-0.219-0.136-0.441-0.269-0.662-0.4
			c-0.462-0.276-0.929-0.544-1.399-0.806c-0.219-0.122-0.437-0.245-0.658-0.364c-0.547-0.294-1.099-0.576-1.657-0.851
			c-0.141-0.07-0.28-0.144-0.423-0.212c-0.703-0.339-1.416-0.66-2.137-0.968c-0.164-0.07-0.331-0.134-0.496-0.202
			c-0.558-0.231-1.118-0.453-1.686-0.666c-0.247-0.092-0.494-0.18-0.743-0.268c-0.504-0.18-1.01-0.351-1.52-0.515
			c-0.258-0.083-0.516-0.166-0.776-0.246c-0.551-0.167-1.106-0.324-1.664-0.473c-0.21-0.056-0.418-0.117-0.629-0.171
			c-0.767-0.195-1.539-0.376-2.319-0.537c-0.128-0.026-0.257-0.046-0.385-0.072c-0.654-0.13-1.313-0.249-1.975-0.353
			c-0.262-0.042-0.526-0.076-0.789-0.114c-0.542-0.077-1.087-0.147-1.633-0.208c-0.286-0.031-0.572-0.062-0.859-0.089
			c-0.56-0.052-1.123-0.094-1.689-0.128c-0.257-0.016-0.512-0.036-0.77-0.048c-0.817-0.038-1.636-0.063-2.463-0.063
			c-0.827,0-1.646,0.024-2.463,0.063c-0.257,0.013-0.513,0.031-0.77,0.047c-0.565,0.034-1.129,0.076-1.69,0.129
			c-0.287,0.027-0.573,0.057-0.858,0.089c-0.548,0.061-1.093,0.132-1.635,0.209c-0.262,0.038-0.526,0.073-0.787,0.114
			c-0.665,0.106-1.324,0.225-1.98,0.354c-0.126,0.025-0.254,0.045-0.379,0.071c-0.781,0.161-1.554,0.342-2.322,0.537
			c-0.209,0.053-0.416,0.114-0.624,0.17c-0.56,0.151-1.117,0.306-1.669,0.475c-0.258,0.078-0.515,0.161-0.772,0.243
			c-0.512,0.165-1.02,0.338-1.526,0.517c-0.247,0.088-0.493,0.174-0.738,0.266c-0.57,0.212-1.133,0.437-1.693,0.669
			c-0.162,0.068-0.327,0.13-0.488,0.199c-0.721,0.307-1.435,0.63-2.139,0.969c-0.14,0.067-0.277,0.14-0.416,0.209
			c-0.56,0.276-1.116,0.559-1.666,0.854c-0.219,0.118-0.436,0.24-0.653,0.361c-0.472,0.262-0.942,0.532-1.406,0.809
			c-0.22,0.132-0.44,0.263-0.658,0.397c-0.489,0.302-0.971,0.612-1.449,0.93c-0.169,0.113-0.341,0.221-0.508,0.334
			c-0.645,0.439-1.281,0.888-1.904,1.355c-0.047,0.036-0.093,0.073-0.14,0.108c-0.57,0.428-1.129,0.869-1.679,1.321
			c-0.178,0.145-0.351,0.295-0.527,0.442c-0.422,0.354-0.839,0.715-1.249,1.083c-0.189,0.169-0.376,0.339-0.562,0.511
			c-0.408,0.376-0.808,0.76-1.204,1.148c-0.16,0.157-0.322,0.311-0.48,0.47c-0.534,0.538-1.06,1.086-1.571,1.647
			c-0.007,0.008-0.015,0.016-0.022,0.023c-0.524,0.576-1.031,1.165-1.529,1.764c-0.135,0.162-0.264,0.328-0.397,0.492
			c-0.356,0.439-0.706,0.883-1.048,1.333c-0.155,0.204-0.306,0.409-0.458,0.614c-0.321,0.436-0.634,0.878-0.942,1.324
			c-0.138,0.201-0.278,0.399-0.413,0.602c-0.357,0.534-0.703,1.075-1.042,1.623c-0.069,0.112-0.142,0.222-0.211,0.334
			c-0.403,0.665-0.791,1.34-1.164,2.023c-0.092,0.167-0.177,0.339-0.266,0.508c-0.276,0.517-0.544,1.038-0.803,1.565
			c-0.116,0.236-0.227,0.473-0.339,0.711c-0.227,0.481-0.446,0.964-0.658,1.453c-0.106,0.243-0.212,0.487-0.315,0.732
			c-0.224,0.537-0.436,1.079-0.643,1.625c-0.071,0.19-0.147,0.377-0.217,0.568c-0.256,0.703-0.501,1.413-0.727,2.131h-10.06v-58.476
			h63.725v0.032h49.479c3.006,0,5.453,2.446,5.453,5.454v52.99H471.647z"/>
	</g>
</g>
</svg>